<?xml version="1.0" encoding="UTF-8"?>
<svg id="Layer_1" data-name="Layer 1" xmlns="http://www.w3.org/2000/svg" xmlns:xlink="http://www.w3.org/1999/xlink" viewBox="0 0 1000 1165.68">
  <defs>
    <style>
      .cls-1 {
        fill: url(#linear-gradient-2);
      }

      .cls-2 {
        fill: url(#linear-gradient);
      }
    </style>
    <linearGradient id="linear-gradient" x1="1889.87" y1="865.81" x2="98.56" y2="865.81" gradientTransform="translate(-21.52 19.56) rotate(-.3)" gradientUnits="userSpaceOnUse">
      <stop offset="0" stop-color="#04e4f7"/>
      <stop offset="1" stop-color="#0f03f3"/>
    </linearGradient>
    <linearGradient id="linear-gradient-2" x1="-16.28" y1="1385.79" x2="676.74" y2="-292.25" xlink:href="#linear-gradient"/>
  </defs>
  <path class="cls-2" d="M1000,912.54l-422.5,238.02c-25.37,14.3-54.68,18.45-82.35,12.45-5.63-1.17-11.05-2.83-16.46-4.84l5.81-558.63c4.23,8.54,11.13,15.51,19.58,19.78.21.14.42.28.62.35l495.3,292.85Z"/>
  <path class="cls-1" d="M485.56,7.54l-5.95,571.29c-.08,5.27.78,10.43,2.56,15.18.63,1.86,1.36,3.82,2.31,5.57l-5.33,515.38s-.39,43.2-.49,43.2c-.31-.1-.52-.2-.83-.31-6.11-2.34-11.91-5.1-17.61-8.48-85.19-50.52-178.97-93.34-256.18-155.97-66.61-54.03-120.05-124.04-155.28-202.2C17.87,722.66,1.37,647.82.22,572.68c-1.19-77.67,2.8-155.86,3.48-233.65.4-41.85,23.24-80.42,59.71-100.97,0,0,70.26-39.64,70.37-39.75L467.39,10.33l18.24-10.33-.07,7.54Z"/>
</svg>