<?xml version="1.0" encoding="UTF-8"?>
<svg xmlns="http://www.w3.org/2000/svg" width="1280" height="640" viewBox="0 0 1280 640">
  <defs>
    <radialGradient id="bg" cx="28%" cy="22%" r="90%">
      <stop offset="0%" stop-color="#171717"/>
      <stop offset="55%" stop-color="#0b0b0b"/>
      <stop offset="100%" stop-color="#060606"/>
    </radialGradient>
    <style>
      text { font-family: "Liberation Sans", "Helvetica Neue", Arial, sans-serif; }
    </style>
  </defs>

  <rect width="1280" height="640" fill="url(#bg)"/>
  <rect x="20" y="20" width="1240" height="600" rx="28" fill="none" stroke="#242424" stroke-width="2"/>

  <!-- logo mark -->
  <svg x="96" y="150" width="136" height="151" viewBox="367.736 280.8939 344.5282 382.8968" fill="#ffffff">
    <path d="M371.41,473.85a40.34,40.34,0,0,0,11.36,27.82A37.71,37.71,0,0,0,388,506.1l13.78,9.7,120.84,84.92a31.41,31.41,0,0,0,38.45,0L681.9,515.8l13.8-9.7a38,38,0,0,0,5.19-4.43,40.31,40.31,0,0,0,11.37-27.82,41.07,41.07,0,0,0-5.63-21.35c.44,2.41,2.53,14.21-23.3,33.81l-1.1.77L662.17,501.2,548.72,580.94a14.19,14.19,0,0,1-6.89,2.54,14,14,0,0,1-6.88-2.54L421.5,501.2l-20.06-14.12-1.1-.77c-25.83-19.6-23.74-31.4-23.3-33.81A41.07,41.07,0,0,0,371.41,473.85Z"/>
    <path d="M683.33,542.81l-1.1.76-20.06,14.12L548.72,637.43a14.09,14.09,0,0,1-6.89,2.54,13.9,13.9,0,0,1-6.88-2.54L421.5,557.69l-20.06-14.12-1.1-.76C374.51,523.2,376.6,511.4,377,509a41.09,41.09,0,0,0-5.63,21.35,40.33,40.33,0,0,0,11.36,27.82,37.71,37.71,0,0,0,5.22,4.43l13.78,9.71,120.84,84.91a31.41,31.41,0,0,0,38.45,0L681.9,572.3l13.8-9.71a38,38,0,0,0,5.19-4.43,40.29,40.29,0,0,0,11.37-27.82A41.09,41.09,0,0,0,706.63,509C707.07,511.4,709.16,523.2,683.33,542.81Z"/>
    <path d="M380.76,444.66c.88.79,1.8,1.55,2.77,2.27L399.3,458.6l9.81,7.27,8.8,6.51L437.63,487l78.15,57.86a35.11,35.11,0,0,0,41.63.51l83.93-59,20.07-14.11,9-6.29,10-7.06L692,450.73a38.13,38.13,0,0,0,7.24-6.65A39.5,39.5,0,0,0,705.38,434a41.34,41.34,0,0,0,3.23-15.52,39.94,39.94,0,0,0-15.79-32.64L560.58,288a35.08,35.08,0,0,0-41.63-.52L384.33,382.06a40,40,0,0,0-16.59,32.24,41,41,0,0,0,5.64,21.33A38.17,38.17,0,0,0,380.76,444.66ZM426,449.43l10.1,7.48-7-5.15Zm119,76.16a13.89,13.89,0,0,1-16.44-.2l-31.19-23.1,26.33,19.49-36.69-27.16L457.7,472.88l10-7.06,66.53-46.77a14.87,14.87,0,0,1,2-1.15,14,14,0,0,1,1.45-.61,13.81,13.81,0,0,1,4.86-.83,13.46,13.46,0,0,1,3.5.51,14.45,14.45,0,0,1,4.68,2.29l70.89,52.5h0l-11.5,8.1,11.5-8.1h0ZM679.67,431l-19,13.33-10,7.06-9,6.3,0,0L680.85,430l-.13.12C680.38,430.43,680,430.7,679.67,431Zm-283-29.11L531.3,307.22a13.82,13.82,0,0,1,16.44.2L680,405.34a15.54,15.54,0,0,1,6.23,12.89,13.52,13.52,0,0,1-.08,1.42A15.42,15.42,0,0,1,680.85,430l-.15.1-20.06,14.14-19,13.36-29.13-21.56-49-36.27a35.16,35.16,0,0,0-26.38-6.7,36,36,0,0,0-15.25,6.18l-30.28,21.29L448,451.22l-10,7.06-12.66-9.37-6-4.45,10-7L535,363.16a14.06,14.06,0,0,1,8.26-2.58,13.87,13.87,0,0,1,8.17,2.79L650.85,437l9.79,7.26,20.06-14.13-9.78-7.25-106.68-79a35.09,35.09,0,0,0-41.64-.51l-113,79.41-10,7.05h0l-3.23-2.39a15,15,0,0,1-4.88-6.13,16,16,0,0,1-1.35-6.75A15.54,15.54,0,0,1,396.68,401.85Z"/>
  </svg>

  <!-- wordmark -->
  <text x="268" y="268" font-size="118" font-weight="700" fill="#ffffff" letter-spacing="-3">instancez</text>

  <!-- taglines -->
  <text x="98" y="404" font-size="38" font-weight="600" fill="#f0f0f0">A single-binary, drop-in replacement for Supabase.</text>
  <text x="98" y="456" font-size="29" font-weight="400" fill="#9a9a9a">Defined in one YAML file. LLM-friendly. Self-hosted in seconds.</text>

  <!-- footer keywords -->
  <text x="98" y="562" font-size="25" font-weight="500" fill="#6f6f6f" letter-spacing="0.5">Auth &#183; PostgREST &#183; Storage &#183; RPC &#183; Functions</text>
</svg>
